<mxfile host="app.diagrams.net" modified="2023-11-25T13:24:54.115Z" agent="Mozilla/5.0 (Windows NT 10.0; Win64; x64) AppleWebKit/537.36 (KHTML, like Gecko) Chrome/119.0.0.0 Safari/537.36" etag="PpquwBtD0H1HNjeonzSE" version="22.1.4" type="github">
  <diagram name="‫עמוד-1‬" id="Cy0kSfpRtUrhkbw0tmN_">
    <mxGraphModel dx="2487" dy="1682" grid="0" gridSize="10" guides="1" tooltips="1" connect="1" arrows="1" fold="1" page="0" pageScale="1" pageWidth="827" pageHeight="1169" math="0" shadow="0">
      <root>
        <mxCell id="0" />
        <mxCell id="1" parent="0" />
        <mxCell id="WQ6pfohWrbxo38tUYevd-3" value="" style="edgeStyle=none;curved=1;rounded=0;orthogonalLoop=1;jettySize=auto;html=1;fontSize=12;startSize=8;endSize=8;" parent="1" source="WQ6pfohWrbxo38tUYevd-1" target="WQ6pfohWrbxo38tUYevd-2" edge="1">
          <mxGeometry relative="1" as="geometry" />
        </mxCell>
        <mxCell id="WQ6pfohWrbxo38tUYevd-1" value="start" style="rounded=1;whiteSpace=wrap;html=1;fontSize=16;" parent="1" vertex="1">
          <mxGeometry x="-439" y="-700" width="129" height="24" as="geometry" />
        </mxCell>
        <mxCell id="m0G0_TbFQkXBxwa3wvaf-2" value="" style="edgeStyle=orthogonalEdgeStyle;rounded=0;orthogonalLoop=1;jettySize=auto;html=1;" edge="1" parent="1" source="WQ6pfohWrbxo38tUYevd-2" target="m0G0_TbFQkXBxwa3wvaf-1">
          <mxGeometry relative="1" as="geometry" />
        </mxCell>
        <mxCell id="WQ6pfohWrbxo38tUYevd-2" value="number" style="shape=card;whiteSpace=wrap;html=1;fontSize=16;" parent="1" vertex="1">
          <mxGeometry x="-447" y="-648" width="139.5" height="56" as="geometry" />
        </mxCell>
        <mxCell id="WQ6pfohWrbxo38tUYevd-26" value="" style="edgeStyle=none;curved=1;rounded=0;orthogonalLoop=1;jettySize=auto;html=1;fontSize=12;startSize=8;endSize=8;" parent="1" source="WQ6pfohWrbxo38tUYevd-4" target="WQ6pfohWrbxo38tUYevd-25" edge="1">
          <mxGeometry relative="1" as="geometry" />
        </mxCell>
        <mxCell id="m0G0_TbFQkXBxwa3wvaf-7" value="" style="edgeStyle=orthogonalEdgeStyle;rounded=0;orthogonalLoop=1;jettySize=auto;html=1;" edge="1" parent="1" source="WQ6pfohWrbxo38tUYevd-4" target="m0G0_TbFQkXBxwa3wvaf-6">
          <mxGeometry relative="1" as="geometry" />
        </mxCell>
        <mxCell id="WQ6pfohWrbxo38tUYevd-4" value="number &amp;gt; 0&lt;br&gt;" style="ellipse;whiteSpace=wrap;html=1;fontSize=16;" parent="1" vertex="1">
          <mxGeometry x="-427.12" y="-443" width="101.25" height="98" as="geometry" />
        </mxCell>
        <mxCell id="WQ6pfohWrbxo38tUYevd-14" value="" style="edgeStyle=none;curved=1;rounded=0;orthogonalLoop=1;jettySize=auto;html=1;fontSize=12;startSize=8;endSize=8;" parent="1" source="WQ6pfohWrbxo38tUYevd-10" target="WQ6pfohWrbxo38tUYevd-13" edge="1">
          <mxGeometry relative="1" as="geometry" />
        </mxCell>
        <mxCell id="WQ6pfohWrbxo38tUYevd-10" value="sum" style="shape=document;whiteSpace=wrap;html=1;boundedLbl=1;fontSize=16;" parent="1" vertex="1">
          <mxGeometry x="-432" y="-174" width="120" height="80" as="geometry" />
        </mxCell>
        <mxCell id="WQ6pfohWrbxo38tUYevd-13" value="stop" style="rounded=1;whiteSpace=wrap;html=1;fontSize=16;" parent="1" vertex="1">
          <mxGeometry x="-436.5" y="-17" width="129" height="22" as="geometry" />
        </mxCell>
        <mxCell id="WQ6pfohWrbxo38tUYevd-27" value="" style="edgeStyle=none;curved=1;rounded=0;orthogonalLoop=1;jettySize=auto;html=1;fontSize=12;startSize=8;endSize=8;" parent="1" source="WQ6pfohWrbxo38tUYevd-25" target="WQ6pfohWrbxo38tUYevd-10" edge="1">
          <mxGeometry relative="1" as="geometry" />
        </mxCell>
        <mxCell id="WQ6pfohWrbxo38tUYevd-25" value="sum += number" style="rounded=1;whiteSpace=wrap;html=1;fontSize=16;" parent="1" vertex="1">
          <mxGeometry x="-436.49" y="-304" width="120" height="60" as="geometry" />
        </mxCell>
        <mxCell id="m0G0_TbFQkXBxwa3wvaf-3" value="" style="edgeStyle=orthogonalEdgeStyle;rounded=0;orthogonalLoop=1;jettySize=auto;html=1;" edge="1" parent="1" source="m0G0_TbFQkXBxwa3wvaf-1" target="WQ6pfohWrbxo38tUYevd-4">
          <mxGeometry relative="1" as="geometry" />
        </mxCell>
        <mxCell id="m0G0_TbFQkXBxwa3wvaf-1" value="sum = 0" style="rounded=1;whiteSpace=wrap;html=1;fontSize=16;" vertex="1" parent="1">
          <mxGeometry x="-436.49" y="-553" width="120" height="60" as="geometry" />
        </mxCell>
        <mxCell id="m0G0_TbFQkXBxwa3wvaf-8" style="edgeStyle=orthogonalEdgeStyle;rounded=0;orthogonalLoop=1;jettySize=auto;html=1;exitX=1;exitY=0.75;exitDx=0;exitDy=0;entryX=1;entryY=0.5;entryDx=0;entryDy=0;" edge="1" parent="1" source="m0G0_TbFQkXBxwa3wvaf-6" target="WQ6pfohWrbxo38tUYevd-13">
          <mxGeometry relative="1" as="geometry">
            <mxPoint x="119" y="-2" as="targetPoint" />
            <Array as="points">
              <mxPoint x="16" y="-374" />
              <mxPoint x="16" y="-6" />
            </Array>
          </mxGeometry>
        </mxCell>
        <mxCell id="m0G0_TbFQkXBxwa3wvaf-6" value="sum&amp;nbsp;" style="shape=document;whiteSpace=wrap;html=1;boundedLbl=1;" vertex="1" parent="1">
          <mxGeometry x="-127" y="-434" width="120" height="80" as="geometry" />
        </mxCell>
        <mxCell id="m0G0_TbFQkXBxwa3wvaf-9" value="1" style="text;html=1;align=center;verticalAlign=middle;resizable=0;points=[];autosize=1;strokeColor=none;fillColor=none;fontSize=20;" vertex="1" parent="1">
          <mxGeometry x="-510" y="-706" width="29" height="36" as="geometry" />
        </mxCell>
        <mxCell id="m0G0_TbFQkXBxwa3wvaf-12" value="2" style="text;html=1;align=center;verticalAlign=middle;resizable=0;points=[];autosize=1;strokeColor=none;fillColor=none;fontSize=20;" vertex="1" parent="1">
          <mxGeometry x="252" y="-715" width="29" height="36" as="geometry" />
        </mxCell>
        <mxCell id="m0G0_TbFQkXBxwa3wvaf-16" value="" style="edgeStyle=orthogonalEdgeStyle;rounded=0;orthogonalLoop=1;jettySize=auto;html=1;" edge="1" parent="1" source="m0G0_TbFQkXBxwa3wvaf-13" target="m0G0_TbFQkXBxwa3wvaf-15">
          <mxGeometry relative="1" as="geometry" />
        </mxCell>
        <mxCell id="m0G0_TbFQkXBxwa3wvaf-13" value="start" style="rounded=1;whiteSpace=wrap;html=1;fontSize=16;" vertex="1" parent="1">
          <mxGeometry x="311" y="-709" width="129" height="24" as="geometry" />
        </mxCell>
        <mxCell id="m0G0_TbFQkXBxwa3wvaf-25" value="" style="edgeStyle=orthogonalEdgeStyle;rounded=0;orthogonalLoop=1;jettySize=auto;html=1;" edge="1" parent="1" source="m0G0_TbFQkXBxwa3wvaf-15" target="m0G0_TbFQkXBxwa3wvaf-23">
          <mxGeometry relative="1" as="geometry" />
        </mxCell>
        <mxCell id="m0G0_TbFQkXBxwa3wvaf-15" value="number" style="shape=card;whiteSpace=wrap;html=1;fontSize=16;" vertex="1" parent="1">
          <mxGeometry x="305.75" y="-652" width="139.5" height="56" as="geometry" />
        </mxCell>
        <mxCell id="m0G0_TbFQkXBxwa3wvaf-27" value="" style="edgeStyle=orthogonalEdgeStyle;rounded=0;orthogonalLoop=1;jettySize=auto;html=1;" edge="1" parent="1" source="m0G0_TbFQkXBxwa3wvaf-23" target="m0G0_TbFQkXBxwa3wvaf-26">
          <mxGeometry relative="1" as="geometry" />
        </mxCell>
        <mxCell id="m0G0_TbFQkXBxwa3wvaf-29" value="" style="edgeStyle=orthogonalEdgeStyle;rounded=0;orthogonalLoop=1;jettySize=auto;html=1;" edge="1" parent="1" source="m0G0_TbFQkXBxwa3wvaf-23" target="m0G0_TbFQkXBxwa3wvaf-28">
          <mxGeometry relative="1" as="geometry" />
        </mxCell>
        <mxCell id="m0G0_TbFQkXBxwa3wvaf-23" value="divide = 0&amp;nbsp;&lt;br style=&quot;font-size: 15px;&quot;&gt;&amp;nbsp;numer % divid = 0&lt;br style=&quot;font-size: 15px;&quot;&gt;divide ++&amp;nbsp;" style="ellipse;whiteSpace=wrap;html=1;aspect=fixed;fontSize=15;" vertex="1" parent="1">
          <mxGeometry x="307.43" y="-541" width="136.13" height="136.13" as="geometry" />
        </mxCell>
        <mxCell id="m0G0_TbFQkXBxwa3wvaf-26" value="מספר לא ראשוני" style="shape=document;whiteSpace=wrap;html=1;boundedLbl=1;fontSize=15;" vertex="1" parent="1">
          <mxGeometry x="531.625" y="-512.935" width="120" height="80" as="geometry" />
        </mxCell>
        <mxCell id="m0G0_TbFQkXBxwa3wvaf-31" value="" style="edgeStyle=orthogonalEdgeStyle;rounded=0;orthogonalLoop=1;jettySize=auto;html=1;" edge="1" parent="1" source="m0G0_TbFQkXBxwa3wvaf-28" target="m0G0_TbFQkXBxwa3wvaf-30">
          <mxGeometry relative="1" as="geometry" />
        </mxCell>
        <mxCell id="m0G0_TbFQkXBxwa3wvaf-28" value="מספר ראשוני" style="shape=document;whiteSpace=wrap;html=1;boundedLbl=1;fontSize=15;" vertex="1" parent="1">
          <mxGeometry x="315.495" y="-296.805" width="120" height="80" as="geometry" />
        </mxCell>
        <mxCell id="m0G0_TbFQkXBxwa3wvaf-30" value="stop" style="whiteSpace=wrap;html=1;fontSize=15;" vertex="1" parent="1">
          <mxGeometry x="315.495" y="-126.805" width="120" height="60" as="geometry" />
        </mxCell>
        <mxCell id="m0G0_TbFQkXBxwa3wvaf-32" value="" style="endArrow=classic;html=1;rounded=0;" edge="1" parent="1" source="m0G0_TbFQkXBxwa3wvaf-26" target="m0G0_TbFQkXBxwa3wvaf-30">
          <mxGeometry width="50" height="50" relative="1" as="geometry">
            <mxPoint x="545" y="-254" as="sourcePoint" />
            <mxPoint x="599" y="-88" as="targetPoint" />
            <Array as="points">
              <mxPoint x="592" y="-97" />
            </Array>
          </mxGeometry>
        </mxCell>
        <mxCell id="m0G0_TbFQkXBxwa3wvaf-33" value="var num = parseInt(prompt(&quot;enter a number&quot;)) ;&lt;br&gt;var divide = 0 ;&lt;br&gt;for ( ; num % divide === 0; divide ++;) {&lt;br&gt;console.log(prime number);}" style="text;html=1;align=left;verticalAlign=middle;resizable=0;points=[];autosize=1;strokeColor=none;fillColor=none;fontSize=16;" vertex="1" parent="1">
          <mxGeometry x="688" y="-597" width="352" height="89" as="geometry" />
        </mxCell>
      </root>
    </mxGraphModel>
  </diagram>
</mxfile>
